<svg width="756" height="486" viewBox="0 0 756 486" fill="none" xmlns="http://www.w3.org/2000/svg">
	<rect x="2.5" y="2.5" width="720.137" height="438.382" fill="#ADC6EA" stroke="#398AFF" stroke-width="5" />
	<g filter="url(#filter0_d_171_853)">
		<rect x="25" y="15" width="674" height="40" fill="white" />
		<rect x="26" y="16" width="672" height="38" stroke="#398AFF" stroke-width="2" />
	</g>
	<g filter="url(#filter1_d_171_853)">
		<rect x="25" y="77" width="195.758" height="151.627" fill="white" />
		<rect x="26.5" y="78.5" width="192.758" height="148.627" stroke="#398AFF" stroke-width="3" />
	</g>
	<path
		d="M174.16 161.391C174.974 161.617 175.823 161.737 176.699 161.737C182.117 161.737 186.639 157.226 186.639 151.498C186.639 145.769 182.117 141.258 176.7 141.258L174.16 161.391ZM174.16 161.391C173.159 156.654 170.544 152.526 166.935 149.622M174.16 161.391L166.935 149.622M166.935 149.622C167.796 144.814 171.895 141.26 176.699 141.258L166.935 149.622ZM177.371 208.714V205.991L177.079 206.001V202.368V197.974C177.079 197.967 177.079 197.96 177.079 197.953C177.079 197.953 177.079 197.953 177.079 197.953C177.07 190.062 171.913 183.433 164.956 181.318L162.841 180.675C161.993 181.167 161.099 181.586 160.167 181.925C158.389 182.57 156.471 182.923 154.466 182.923C152.46 182.923 150.541 182.57 148.763 181.924C147.83 181.585 146.936 181.166 146.089 180.674L143.972 181.318C137.012 183.435 131.857 190.061 131.846 197.953C131.846 197.96 131.845 197.967 131.845 197.974C131.845 197.974 131.845 197.975 131.845 197.975V202.28V205.996L177.371 208.714ZM177.371 208.714H177.275H176.424L175.668 209.105L174.77 209.569L174.762 209.573L177.371 208.714ZM140.789 150.674C137.938 153.367 135.857 156.885 134.909 160.852C133.672 161.423 132.313 161.739 130.883 161.739C125.464 161.739 120.943 157.228 120.943 151.502C120.943 145.772 125.465 141.261 130.883 141.261C136.034 141.261 140.378 145.344 140.789 150.674ZM196.109 195.792C194.386 196.515 190.259 197.992 184.079 198.62V197.974C184.079 188.755 179.024 180.687 171.547 176.549C172.82 174.474 173.737 172.153 174.215 169.675H182.402C189.884 169.675 196.109 175.926 196.109 183.766V195.792ZM134.715 169.675C135.193 172.152 136.109 174.474 137.381 176.549C129.902 180.687 124.848 188.754 124.845 197.973V197.974V198.462C120.798 197.998 116.332 197.127 111.471 195.668V183.766C111.471 175.927 117.696 169.675 125.179 169.675H134.715ZM173.871 197.952V197.953V209.977C173.751 210.028 173.619 210.082 173.476 210.139C172.641 210.472 171.411 210.912 169.811 211.351C166.612 212.228 161.929 213.099 155.948 213.099C150.167 213.099 143.149 212.287 135.055 209.854V197.953C135.055 190.112 141.28 183.859 148.763 183.859H160.167C167.65 183.859 173.874 190.112 173.871 197.952ZM164.406 165.683C164.406 171.411 159.883 175.923 154.466 175.923C149.048 175.923 144.524 171.411 144.524 165.684C144.524 159.956 149.048 155.443 154.466 155.443C159.883 155.443 164.406 159.955 164.406 165.683Z"
		fill="#398AFF" stroke="#398AFF" stroke-width="7" />
	<g filter="url(#filter2_d_171_853)">
		<rect x="25.3678" y="259.598" width="195.758" height="139.18" fill="white" />
		<rect x="26.8678" y="261.098" width="192.758" height="136.18" stroke="#398AFF" stroke-width="3" />
	</g>
	<path
		d="M178.211 372.423C177.548 372.543 176.869 372.543 176.206 372.423C174.58 371.902 173.226 370.761 172.438 369.246C171.651 367.732 171.494 365.967 172.002 364.338C174.512 356.365 175.11 347.912 173.746 339.665C172.382 331.418 169.095 323.607 164.151 316.867C159.207 310.127 152.745 304.646 145.288 300.867C137.831 297.089 129.589 295.121 121.23 295.121C112.871 295.121 104.629 297.089 97.1722 300.867C89.7154 304.646 83.2533 310.127 78.3091 316.867C73.365 323.607 70.0778 331.418 68.7138 339.665C67.3499 347.912 67.9475 356.365 70.4582 364.338C70.713 365.149 70.8056 366.002 70.7306 366.849C70.6556 367.696 70.4145 368.52 70.0211 369.274C69.6277 370.027 69.0897 370.696 68.4379 371.242C67.786 371.788 67.033 372.2 66.2218 372.455C64.5837 372.969 62.8082 372.812 61.286 372.018C59.7637 371.223 58.6194 369.857 58.1048 368.219C54.9928 358.309 54.2573 347.807 55.9579 337.56C57.6585 327.314 61.7474 317.612 67.8937 309.24C74.0401 300.867 82.0711 294.059 91.3371 289.366C100.603 284.674 110.844 282.229 121.23 282.229C131.616 282.229 141.857 284.674 151.123 289.366C160.389 294.059 168.42 300.867 174.566 309.24C180.713 317.612 184.801 327.314 186.502 337.56C188.203 347.807 187.467 358.309 184.355 368.219C183.889 369.467 183.048 370.541 181.948 371.293C180.849 372.046 179.543 372.44 178.211 372.423Z"
		fill="#398AFF" />
	<path
		d="M178.211 372.423H64.2491C62.5338 372.423 60.8887 371.741 59.6758 370.528C58.4628 369.315 57.7814 367.67 57.7814 365.955C57.7814 364.239 58.4628 362.594 59.6758 361.381C60.8887 360.168 62.5338 359.487 64.2491 359.487H178.211C179.926 359.487 181.571 360.168 182.784 361.381C183.997 362.594 184.678 364.239 184.678 365.955C184.678 367.67 183.997 369.315 182.784 370.528C181.571 371.741 179.926 372.423 178.211 372.423Z"
		fill="#398AFF" />
	<path
		d="M121.23 354.507C120.379 354.512 119.535 354.349 118.747 354.027C117.959 353.705 117.242 353.231 116.638 352.631C116.032 352.03 115.551 351.315 115.222 350.527C114.894 349.738 114.725 348.893 114.725 348.039C114.725 347.185 114.894 346.34 115.222 345.552C115.551 344.764 116.032 344.048 116.638 343.447L140.633 319.581C141.845 318.377 143.484 317.7 145.193 317.7C146.902 317.7 148.541 318.377 149.753 319.581C150.359 320.182 150.84 320.898 151.168 321.686C151.497 322.474 151.666 323.319 151.666 324.173C151.666 325.027 151.497 325.872 151.168 326.661C150.84 327.449 150.359 328.164 149.753 328.765L125.887 352.631C125.275 353.239 124.548 353.717 123.748 354.039C122.948 354.362 122.092 354.521 121.23 354.507Z"
		fill="#398AFF" />
	<g filter="url(#filter3_d_171_853)">
		<rect x="248.282" y="66.1035" width="451.487" height="356.437" fill="white" />
		<rect x="249.782" y="67.6035" width="448.487" height="353.437" stroke="#398AFF" stroke-width="3" />
	</g>
	<g filter="url(#filter4_d_171_853)">
		<rect x="555" y="264" width="188.542" height="209.132" fill="#ADC6EA" stroke="#398AFF" stroke-width="8" />
		<path
			d="M606.009 431.285V432.785H607.509H694.9H696.4V431.285V318.566V317.066H694.9H607.509H606.009V318.566V431.285ZM597.886 440.325L596.853 441.412L597.886 440.325C597.004 439.487 596.524 438.368 596.524 437.217V312.634C596.524 311.483 597.004 310.364 597.886 309.526C598.77 308.686 599.985 308.201 601.267 308.201H701.142C702.424 308.201 703.639 308.686 704.523 309.526C705.404 310.364 705.884 311.483 705.884 312.634V437.217C705.884 438.368 705.404 439.487 704.523 440.325C703.639 441.165 702.424 441.65 701.142 441.65H601.267C599.985 441.65 598.77 441.165 597.886 440.325Z"
			fill="white" stroke="#398AFF" stroke-width="3" />
		<path
			d="M637.977 337.919L637.977 337.919L646.81 342.131L647.372 342.399L647.861 342.013L663.466 329.673L663.47 329.67C664.368 328.954 665.502 328.539 666.688 328.503C667.874 328.466 669.032 328.809 669.979 329.469C669.98 329.47 669.982 329.471 669.983 329.471L682.459 338.365C683.571 339.157 684.293 340.326 684.485 341.606C684.677 342.885 684.329 344.19 683.503 345.236C682.676 346.285 681.434 346.99 680.043 347.178C678.651 347.367 677.243 347.022 676.129 346.228L667.609 340.148L666.996 339.71L666.407 340.178L651.459 352.041C651.459 352.042 651.459 352.042 651.458 352.042C650.677 352.658 649.719 353.048 648.699 353.16C647.68 353.271 646.65 353.099 645.736 352.666C645.736 352.665 645.735 352.665 645.734 352.665L637.28 348.603L636.658 348.304L636.158 348.78L626.799 357.674C625.822 358.58 624.502 359.095 623.117 359.094C622.073 359.09 621.057 358.792 620.198 358.243C619.339 357.695 618.678 356.923 618.289 356.029C617.901 355.137 617.8 354.158 617.996 353.215C618.192 352.271 618.679 351.396 619.404 350.703C619.404 350.702 619.404 350.702 619.405 350.702L631.886 338.84C631.886 338.84 631.886 338.84 631.886 338.839C632.663 338.104 633.67 337.614 634.767 337.447C635.865 337.28 636.988 337.446 637.977 337.919Z"
			fill="white" stroke="#398AFF" stroke-width="2" />
		<path
			d="M628.357 374.925C628.357 377.602 626.058 379.858 623.114 379.858C620.171 379.858 617.872 377.602 617.872 374.925C617.872 372.249 620.171 369.993 623.114 369.993C626.058 369.993 628.357 372.249 628.357 374.925Z"
			fill="white" stroke="#398AFF" stroke-width="2" />
		<path
			d="M628.357 395.689C628.357 398.366 626.058 400.622 623.114 400.622C620.171 400.622 617.872 398.366 617.872 395.689C617.872 393.013 620.171 390.757 623.114 390.757C626.058 390.757 628.357 393.013 628.357 395.689Z"
			fill="white" stroke="#398AFF" stroke-width="2" />
		<path
			d="M628.357 416.454C628.357 419.13 626.058 421.386 623.114 421.386C620.171 421.386 617.872 419.13 617.872 416.454C617.872 413.777 620.171 411.521 623.114 411.521C626.058 411.521 628.357 413.777 628.357 416.454Z"
			fill="white" stroke="#398AFF" stroke-width="2" />
		<path
			d="M679.294 379.858H644.962C643.556 379.858 642.217 379.327 641.237 378.396C640.259 377.466 639.72 376.217 639.72 374.925C639.72 373.634 640.259 372.385 641.237 371.455C642.217 370.524 643.556 369.993 644.962 369.993H679.294C680.701 369.993 682.04 370.524 683.019 371.455C683.997 372.385 684.537 373.634 684.537 374.925C684.537 376.217 683.997 377.466 683.019 378.396C682.04 379.327 680.701 379.858 679.294 379.858Z"
			fill="white" stroke="#398AFF" stroke-width="2" />
		<path
			d="M679.294 400.622H644.962C643.556 400.622 642.217 400.091 641.237 399.159C640.259 398.23 639.72 396.981 639.72 395.689C639.72 394.398 640.259 393.149 641.237 392.219C642.217 391.288 643.556 390.757 644.962 390.757H679.294C680.701 390.757 682.04 391.288 683.019 392.219C683.997 393.149 684.537 394.398 684.537 395.689C684.537 396.981 683.997 398.23 683.019 399.159C682.04 400.091 680.701 400.622 679.294 400.622Z"
			fill="white" stroke="#398AFF" stroke-width="2" />
		<path
			d="M679.294 421.386H644.962C643.556 421.386 642.217 420.855 641.237 419.924C640.259 418.994 639.72 417.745 639.72 416.454C639.72 415.162 640.259 413.913 641.237 412.983C642.217 412.052 643.556 411.521 644.962 411.521H679.294C680.701 411.521 682.04 412.052 683.019 412.983C683.997 413.913 684.537 415.162 684.537 416.454C684.537 417.745 683.997 418.994 683.019 419.924C682.04 420.855 680.701 421.386 679.294 421.386Z"
			fill="white" stroke="#398AFF" stroke-width="2" />
	</g>
	<g clip-path="url(#clip0_171_853)">
		<path
			d="M373.581 159.401H330.374V116.195C330.374 112.786 327.61 110.023 324.202 110.023C293.571 110.023 268.65 134.943 268.65 165.574C268.65 196.205 293.571 221.125 324.202 221.125C354.833 221.125 379.753 196.205 379.753 165.574C379.753 162.165 376.989 159.401 373.581 159.401ZM324.202 208.781C300.378 208.781 280.995 189.398 280.995 165.574C280.995 143.845 297.119 125.811 318.029 122.807V165.574C318.029 168.982 320.793 171.746 324.202 171.746H366.969C363.964 192.657 345.93 208.781 324.202 208.781Z"
			fill="#398AFF" />
		<path
			d="M348.891 85.3398C345.482 85.3398 342.719 88.1034 342.719 91.5122V140.885C342.719 144.293 345.482 147.057 348.891 147.057H398.263C401.672 147.057 404.436 144.293 404.436 140.885C404.436 110.257 379.519 85.3398 348.891 85.3398ZM355.063 134.712V98.1241C373.955 100.838 388.937 115.821 391.652 134.712H355.063Z"
			fill="#398AFF" />
	</g>
	<mask id="path-25-inside-1_171_853" fill="white">
		<path
			d="M516.442 375.361H434.183V301.361C434.183 299.852 432.895 299.238 432.365 299.238H427.713C427.183 299.238 425.511 300.103 425.511 301.361V381.909C425.511 382.439 425.826 384.033 427.713 384.033H516.442C517.7 384.033 518.015 383.068 518.015 382.538V376.875C518.015 376.345 517.7 375.361 516.442 375.361ZM444.783 352.716C444.783 354.761 445.595 356.722 447.04 358.167C448.486 359.613 450.447 360.425 452.491 360.425C454.536 360.425 456.496 359.613 457.942 358.167C459.388 356.722 460.2 354.761 460.2 352.716C460.2 350.672 459.388 348.711 457.942 347.266C456.496 345.82 454.536 345.008 452.491 345.008C450.447 345.008 448.486 345.82 447.04 347.266C445.595 348.711 444.783 350.672 444.783 352.716ZM458.995 325.736C458.995 327.269 459.605 328.74 460.689 329.824C461.773 330.908 463.244 331.518 464.777 331.518C466.31 331.518 467.781 330.908 468.865 329.824C469.949 328.74 470.558 327.269 470.558 325.736C470.558 324.203 469.949 322.732 468.865 321.648C467.781 320.564 466.31 319.955 464.777 319.955C463.244 319.955 461.773 320.564 460.689 321.648C459.605 322.732 458.995 324.203 458.995 325.736ZM478.026 353.198C478.026 356.265 479.244 359.206 481.413 361.374C483.581 363.543 486.522 364.761 489.589 364.761C492.656 364.761 495.597 363.543 497.765 361.374C499.934 359.206 501.152 356.265 501.152 353.198C501.152 350.131 499.934 347.19 497.765 345.022C495.597 342.853 492.656 341.635 489.589 341.635C486.522 341.635 483.581 342.853 481.413 345.022C479.244 347.19 478.026 350.131 478.026 353.198ZM495.852 315.378C495.852 317.166 496.563 318.882 497.828 320.147C499.093 321.412 500.809 322.123 502.598 322.123C504.386 322.123 506.102 321.412 507.367 320.147C508.632 318.882 509.343 317.166 509.343 315.378C509.343 313.589 508.632 311.873 507.367 310.608C506.102 309.343 504.386 308.632 502.598 308.632C500.809 308.632 499.093 309.343 497.828 310.608C496.563 311.873 495.852 313.589 495.852 315.378Z" />
	</mask>
	<path
		d="M516.442 375.361H434.183V301.361C434.183 299.852 432.895 299.238 432.365 299.238H427.713C427.183 299.238 425.511 300.103 425.511 301.361V381.909C425.511 382.439 425.826 384.033 427.713 384.033H516.442C517.7 384.033 518.015 383.068 518.015 382.538V376.875C518.015 376.345 517.7 375.361 516.442 375.361ZM444.783 352.716C444.783 354.761 445.595 356.722 447.04 358.167C448.486 359.613 450.447 360.425 452.491 360.425C454.536 360.425 456.496 359.613 457.942 358.167C459.388 356.722 460.2 354.761 460.2 352.716C460.2 350.672 459.388 348.711 457.942 347.266C456.496 345.82 454.536 345.008 452.491 345.008C450.447 345.008 448.486 345.82 447.04 347.266C445.595 348.711 444.783 350.672 444.783 352.716ZM458.995 325.736C458.995 327.269 459.605 328.74 460.689 329.824C461.773 330.908 463.244 331.518 464.777 331.518C466.31 331.518 467.781 330.908 468.865 329.824C469.949 328.74 470.558 327.269 470.558 325.736C470.558 324.203 469.949 322.732 468.865 321.648C467.781 320.564 466.31 319.955 464.777 319.955C463.244 319.955 461.773 320.564 460.689 321.648C459.605 322.732 458.995 324.203 458.995 325.736ZM478.026 353.198C478.026 356.265 479.244 359.206 481.413 361.374C483.581 363.543 486.522 364.761 489.589 364.761C492.656 364.761 495.597 363.543 497.765 361.374C499.934 359.206 501.152 356.265 501.152 353.198C501.152 350.131 499.934 347.19 497.765 345.022C495.597 342.853 492.656 341.635 489.589 341.635C486.522 341.635 483.581 342.853 481.413 345.022C479.244 347.19 478.026 350.131 478.026 353.198ZM495.852 315.378C495.852 317.166 496.563 318.882 497.828 320.147C499.093 321.412 500.809 322.123 502.598 322.123C504.386 322.123 506.102 321.412 507.367 320.147C508.632 318.882 509.343 317.166 509.343 315.378C509.343 313.589 508.632 311.873 507.367 310.608C506.102 309.343 504.386 308.632 502.598 308.632C500.809 308.632 499.093 309.343 497.828 310.608C496.563 311.873 495.852 313.589 495.852 315.378Z"
		fill="#398AFF" />
	<path
		d="M434.183 375.361H334.183V475.361H434.183V375.361ZM458.995 325.736H358.995H458.995ZM464.777 331.518V431.518V331.518ZM464.777 319.955V219.955V319.955ZM478.026 353.198H378.026H478.026ZM489.589 364.761V464.761V364.761ZM501.152 353.198H601.152H501.152ZM489.589 341.635V241.635V341.635ZM495.852 315.378H395.852H495.852ZM502.598 322.123V222.123V322.123ZM516.442 275.361H434.183V475.361H516.442V275.361ZM534.183 375.361V301.361H334.183V375.361H534.183ZM534.183 301.361C534.183 268.758 519.049 241.862 499.596 224.716C484.602 211.499 461.449 199.238 432.365 199.238V399.238C415.674 399.238 402.561 395.053 394.481 391.694C385.234 387.849 375.928 382.313 367.349 374.751C348.673 358.289 334.183 332.455 334.183 301.361H534.183ZM432.365 199.238H427.713V399.238H432.365V199.238ZM427.713 199.238C406.943 199.238 391.631 205.787 387.204 207.715C379.754 210.961 372.348 215.238 365.336 220.647C354.973 228.64 325.511 255.005 325.511 301.361H525.511C525.511 346.459 496.885 371.762 487.491 379.008C480.963 384.043 474.075 388.025 467.087 391.069C463.123 392.796 448.219 399.238 427.713 399.238V199.238ZM325.511 301.361V381.909H525.511V301.361H325.511ZM325.511 381.909C325.511 396.219 328.655 417.902 343.099 439.235C361.749 466.78 393.113 484.033 427.713 484.033V284.033C441.714 284.033 457.863 287.109 473.721 295.588C489.509 304.029 500.958 315.656 508.71 327.105C522.524 347.508 525.511 368.129 525.511 381.909H325.511ZM427.713 484.033H516.442V284.033H427.713V484.033ZM516.442 484.033C546.331 484.033 576.777 470.749 597.022 444.379C613.721 422.626 618.015 399.221 618.015 382.538H418.015C418.015 366.386 422.152 343.727 438.379 322.59C458.151 296.834 487.811 284.033 516.442 284.033V484.033ZM618.015 382.538V376.875H418.015V382.538H618.015ZM618.015 376.875C618.015 360.326 613.796 337.219 597.485 315.633C577.577 289.286 547.117 275.361 516.442 275.361V475.361C487.025 475.361 457.352 461.928 437.915 436.205C422.077 415.243 418.015 392.893 418.015 376.875H618.015ZM344.783 352.716C344.783 381.283 356.13 408.679 376.33 428.878L517.751 287.457C535.059 304.764 544.783 328.239 544.783 352.716H344.783ZM376.33 428.878C396.529 449.077 423.925 460.425 452.491 460.425V260.425C476.968 260.425 500.443 270.149 517.751 287.457L376.33 428.878ZM452.491 460.425C481.057 460.425 508.454 449.077 528.653 428.878L387.231 287.457C404.539 270.149 428.014 260.425 452.491 260.425V460.425ZM528.653 428.878C548.852 408.679 560.2 381.283 560.2 352.716H360.2C360.2 328.239 369.923 304.764 387.231 287.457L528.653 428.878ZM560.2 352.716C560.2 324.15 548.852 296.754 528.653 276.555L387.231 417.976C369.923 400.668 360.2 377.194 360.2 352.716H560.2ZM528.653 276.555C508.454 256.356 481.057 245.008 452.491 245.008V445.008C428.014 445.008 404.539 435.284 387.231 417.976L528.653 276.555ZM452.491 245.008C423.925 245.008 396.529 256.356 376.33 276.555L517.751 417.976C500.443 435.284 476.968 445.008 452.491 445.008V245.008ZM376.33 276.555C356.13 296.754 344.783 324.15 344.783 352.716H544.783C544.783 377.194 535.059 400.668 517.751 417.976L376.33 276.555ZM358.995 325.736C358.995 353.791 370.14 380.697 389.978 400.535L531.399 259.114C549.069 276.783 558.995 300.748 558.995 325.736H358.995ZM389.978 400.535C409.816 420.373 436.722 431.518 464.777 431.518V231.518C489.765 231.518 513.73 241.444 531.399 259.114L389.978 400.535ZM464.777 431.518C492.832 431.518 519.738 420.373 539.576 400.535L398.154 259.114C415.824 241.444 439.789 231.518 464.777 231.518V431.518ZM539.576 400.535C559.414 380.697 570.558 353.791 570.558 325.736H370.558C370.558 300.748 380.485 276.783 398.154 259.114L539.576 400.535ZM570.558 325.736C570.558 297.681 559.414 270.775 539.576 250.937L398.154 392.359C380.485 374.689 370.558 350.724 370.558 325.736H570.558ZM539.576 250.937C519.738 231.099 492.832 219.955 464.777 219.955V419.955C439.789 419.955 415.824 410.028 398.154 392.359L539.576 250.937ZM464.777 219.955C436.722 219.955 409.816 231.099 389.978 250.937L531.399 392.359C513.73 410.028 489.765 419.955 464.777 419.955V219.955ZM389.978 250.937C370.14 270.775 358.995 297.681 358.995 325.736H558.995C558.995 350.724 549.069 374.689 531.399 392.359L389.978 250.937ZM378.026 353.198C378.026 382.786 389.78 411.163 410.702 432.085L552.124 290.664C568.709 307.249 578.026 329.743 578.026 353.198H378.026ZM410.702 432.085C431.624 453.007 460.001 464.761 489.589 464.761V264.761C513.044 264.761 535.538 274.079 552.124 290.664L410.702 432.085ZM489.589 464.761C519.177 464.761 547.554 453.007 568.476 432.085L427.055 290.664C443.64 274.079 466.134 264.761 489.589 264.761V464.761ZM568.476 432.085C589.398 411.163 601.152 382.786 601.152 353.198H401.152C401.152 329.743 410.47 307.249 427.055 290.664L568.476 432.085ZM601.152 353.198C601.152 323.61 589.398 295.233 568.476 274.311L427.055 415.733C410.47 399.147 401.152 376.653 401.152 353.198H601.152ZM568.476 274.311C547.554 253.389 519.177 241.635 489.589 241.635V441.635C466.134 441.635 443.64 432.318 427.055 415.733L568.476 274.311ZM489.589 241.635C460.001 241.635 431.624 253.389 410.702 274.311L552.124 415.733C535.538 432.318 513.044 441.635 489.589 441.635V241.635ZM410.702 274.311C389.78 295.233 378.026 323.61 378.026 353.198H578.026C578.026 376.653 568.709 399.147 552.124 415.733L410.702 274.311ZM395.852 315.378C395.852 343.688 407.099 370.839 427.117 390.858L568.539 249.436C586.027 266.925 595.852 290.645 595.852 315.378H395.852ZM427.117 390.858C447.136 410.876 474.287 422.123 502.598 422.123V222.123C527.33 222.123 551.05 231.948 568.539 249.436L427.117 390.858ZM502.598 422.123C530.908 422.123 558.059 410.876 578.078 390.858L436.656 249.436C454.145 231.948 477.865 222.123 502.598 222.123V422.123ZM578.078 390.858C598.096 370.839 609.343 343.688 609.343 315.378H409.343C409.343 290.645 419.168 266.925 436.656 249.436L578.078 390.858ZM609.343 315.378C609.343 287.067 598.096 259.916 578.078 239.897L436.656 381.319C419.168 363.83 409.343 340.11 409.343 315.378H609.343ZM578.078 239.897C558.059 219.879 530.908 208.632 502.598 208.632V408.632C477.865 408.632 454.145 398.807 436.656 381.319L578.078 239.897ZM502.598 208.632C474.287 208.632 447.136 219.879 427.117 239.897L568.539 381.319C551.05 398.807 527.33 408.632 502.598 408.632V208.632ZM427.117 239.897C407.099 259.916 395.852 287.067 395.852 315.378H595.852C595.852 340.11 586.027 363.83 568.539 381.319L427.117 239.897Z"
		fill="#398AFF" mask="url(#path-25-inside-1_171_853)" />
	<g clip-path="url(#clip1_171_853)">
		<path
			d="M371.508 372.716H367.616V301.018C367.616 298.122 365.715 295.787 363.28 295.787H346.525C344.091 295.787 342.045 298.122 342.045 301.018V372.716H338.518V325.547C338.518 322.65 336.619 320.265 334.184 320.265H317.429C314.994 320.265 312.946 322.65 312.946 325.547V372.716H309.419V342.141C309.419 339.244 307.522 337.049 305.087 337.049H288.332C285.897 337.049 283.848 339.244 283.848 342.141V372.716H278.487C276.052 372.716 274.078 375.065 274.078 377.962C274.078 380.858 276.052 383.207 278.487 383.207H371.508C373.943 383.207 375.917 380.858 375.917 377.962C375.917 375.065 373.943 372.716 371.508 372.716ZM300.602 372.716H292.666V347.539H300.602V372.716ZM329.7 372.716H321.764V330.755H329.7V372.716ZM358.798 372.716H350.862V306.277H358.798V372.716Z"
			fill="#398AFF" />
	</g>
	<path
		d="M675.895 197.042H656.314V181.141C656.314 178.503 654.208 176.327 651.654 176.327C649.099 176.327 646.993 178.503 646.993 181.141V197.042H630.212V163.088C630.212 160.45 628.106 158.274 625.552 158.274C622.998 158.274 620.892 160.45 620.892 163.088V197.042H604.111V123.372C604.111 120.734 602.005 118.558 599.451 118.558C596.897 118.558 594.791 120.734 594.791 123.372V197.042H580.093V98.0748C580.093 95.4363 577.987 93.2607 575.433 93.2607C572.879 93.2607 570.773 95.4363 570.773 98.0748V201.601C570.773 204.24 572.879 206.415 575.433 206.415H675.649C678.203 206.415 680.533 204.494 680.533 201.833C680.555 199.217 678.449 197.042 675.895 197.042Z"
		fill="#398AFF" />
	<path
		d="M640.272 149.803C645.985 149.803 651.273 147.952 655.619 144.781L669.376 158.992C671.773 161.26 674.977 159.964 675.895 158.992C677.755 157.071 677.755 154.178 675.895 152.257L662.139 138.046C665.208 133.556 667.023 128.07 667.023 122.145C667.023 106.893 655.014 94.5105 640.272 94.5105C625.53 94.5105 613.499 106.916 613.499 122.168C613.499 137.421 625.508 149.803 640.272 149.803ZM640.272 104.208C649.861 104.208 657.636 112.263 657.636 122.145C657.636 132.028 649.839 140.082 640.272 140.082C630.705 140.082 622.909 132.028 622.909 122.145C622.909 112.263 630.683 104.208 640.272 104.208Z"
		fill="#398AFF" />
	<path
		d="M451.371 172.772C451.371 171.667 452.266 170.772 453.371 170.772H462.064C463.169 170.772 464.064 171.667 464.064 172.772V254.581C464.064 255.685 463.169 256.581 462.064 256.581H453.371C452.266 256.581 451.371 255.685 451.371 254.581V172.772ZM476.757 185.03C476.757 183.925 477.653 183.03 478.757 183.03H487.45C488.555 183.03 489.45 183.925 489.45 185.03V254.581C489.45 255.685 488.555 256.581 487.45 256.581H478.757C477.653 256.581 476.757 255.685 476.757 254.581V185.03ZM502.143 160.513C502.143 159.409 503.039 158.513 504.143 158.513H512.837C513.941 158.513 514.837 159.409 514.837 160.513V254.581C514.837 255.685 513.941 256.581 512.837 256.581H504.143C503.039 256.581 502.143 255.685 502.143 254.581V160.513ZM425.985 209.547C425.985 208.442 426.88 207.547 427.985 207.547H436.678C437.782 207.547 438.678 208.442 438.678 209.547V254.581C438.678 255.685 437.782 256.581 436.678 256.581H427.985C426.88 256.581 425.985 255.685 425.985 254.581V209.547Z"
		fill="#398AFF" />
	<rect x="302" y="17" width="120" height="36" fill="white" />
	<g clip-path="url(#clip2_171_853)">
		<path
			d="M322.948 42.7946C321.865 43.2438 321.08 43.5125 320.595 43.6007C320.133 43.6886 319.664 43.7347 319.194 43.7384C318.284 43.7497 317.382 43.5616 316.553 43.1873C315.789 42.8493 315.156 42.273 314.748 41.5449C314.342 40.8192 314.14 39.699 314.14 38.1842V32.6369H310.692V30.7258H314.14V25.1826H316.426V30.7258H322.563V32.6369H316.426V38.1484C316.426 39.2617 316.559 40.0471 316.823 40.5046C317.064 40.94 317.434 41.2903 317.882 41.5077C318.37 41.7283 318.901 41.8353 319.435 41.8204C320.549 41.8204 321.72 41.4718 322.948 40.7746V42.7946Z"
			fill="black" stroke="#1D1D1B" stroke-miterlimit="10" />
		<path
			d="M338.503 42.4349C336.664 43.3085 334.928 43.7453 333.293 43.7453C332.116 43.7638 330.959 43.4423 329.96 42.8194C328.95 42.1674 328.137 41.2534 327.607 40.1752C327.02 39.038 326.717 37.7759 326.723 36.4963C326.723 35.2394 327.011 33.9993 327.566 32.8711C328.079 31.7681 328.891 30.831 329.91 30.1664C330.91 29.5231 332.078 29.1877 333.267 29.2018C334.904 29.2018 336.218 29.7851 337.208 30.9517C338.198 32.1183 338.693 33.9197 338.693 36.3558V36.8477H329.19C329.179 37.7531 329.385 38.6482 329.792 39.4574C330.141 40.1843 330.687 40.7987 331.368 41.2307C332.033 41.6311 332.798 41.8373 333.574 41.8259C335.058 41.8259 336.699 41.3331 338.496 40.3475L338.503 42.4349ZM329.334 35.1322H336.204V34.7933C336.204 33.6698 335.928 32.776 335.377 32.1119C334.825 31.4478 334.09 31.1152 333.17 31.1143C332.719 31.1099 332.272 31.1977 331.856 31.3724C331.44 31.547 331.064 31.8048 330.752 32.1298C330.071 32.8031 329.6 33.8016 329.339 35.1253L329.334 35.1322Z"
			fill="black" stroke="#1D1D1B" stroke-miterlimit="10" />
		<path
			d="M354.25 42.9516C352.839 43.45 351.355 43.714 349.858 43.7329C348.564 43.7576 347.289 43.4268 346.17 42.7766C345.115 42.1557 344.248 41.2605 343.662 40.1862C343.047 39.0439 342.737 37.7628 342.76 36.466C342.76 34.3744 343.442 32.6392 344.805 31.2604C345.441 30.5952 346.207 30.0683 347.056 29.7127C347.905 29.3571 348.818 29.1803 349.738 29.1936C351.276 29.2142 352.8 29.4865 354.25 29.9996V32.2042C352.647 31.4758 351.211 31.1111 349.943 31.1102C349.113 31.1072 348.296 31.3205 347.573 31.7289C346.837 32.1422 346.266 32.7894 345.857 33.6703C345.46 34.5212 345.253 35.4484 345.251 36.3874C345.251 37.622 345.64 38.8024 346.417 39.9286C347.195 41.0548 348.414 41.6179 350.074 41.6179C350.572 41.6185 351.069 41.5839 351.561 41.5145C352.047 41.4475 352.943 41.193 354.25 40.7512V42.9516Z"
			fill="black" stroke="#1D1D1B" stroke-miterlimit="10" />
		<path
			d="M358.266 43.3486V23.4521H360.565V32.5888C361.162 31.5934 361.974 30.7433 362.941 30.1004C363.868 29.4978 364.796 29.197 365.727 29.1979C366.484 29.1899 367.228 29.3963 367.874 29.7931C368.517 30.1899 368.964 30.6731 369.215 31.2426C369.425 31.6784 369.569 32.1427 369.643 32.6205C369.719 33.1101 369.757 34.1206 369.757 35.6518V43.3459H367.459V35.3776C367.459 34.0475 367.395 33.1721 367.267 32.7514C367.146 32.34 366.899 31.9764 366.562 31.7111C366.251 31.4474 365.857 31.3011 365.449 31.2978C364.636 31.3005 363.769 31.6849 362.85 32.451C361.905 33.2461 361.128 34.2214 360.565 35.3198V43.35L358.266 43.3486Z"
			fill="black" stroke="#1D1D1B" stroke-miterlimit="10" />
		<path d="M384.739 23.4949H371.951V46.7644H384.739V23.4949Z" fill="#398AFF" />
		<path d="M377.284 43.6116L371.303 29.8467H373.819L378.547 40.7388L383.374 29.8467H385.659L379.63 43.6116H377.284Z"
			fill="white" stroke="white" stroke-miterlimit="10" />
		<path d="M399.167 23.4907H386.379V46.7603H399.167V23.4907Z" fill="#398AFF" />
		<path
			d="M390.137 43.6117V31.762H386.311V29.8481H392.436V41.6979H396.273V43.6117H390.137ZM389.752 24.8726C389.752 24.3601 389.929 23.9752 390.282 23.718C390.558 23.4706 390.915 23.3337 391.286 23.3337C391.657 23.3337 392.015 23.4706 392.291 23.718C392.644 23.9761 392.82 24.361 392.82 24.8726C392.82 25.3843 392.644 25.7692 392.291 26.0273C392.015 26.2747 391.657 26.4115 391.286 26.4115C390.915 26.4115 390.558 26.2747 390.282 26.0273C389.929 25.7692 389.752 25.3843 389.752 24.8726Z"
			fill="white" stroke="white" stroke-miterlimit="10" />
		<path d="M413.54 23.4907H400.753V46.7603H413.54V23.4907Z" fill="#398AFF" />
		<path
			d="M400.453 43.6117V41.5091L408.91 31.762H400.657V29.8481H411.943V31.762L403.425 41.5118H412.233V43.6117H400.453Z"
			fill="white" stroke="white" stroke-miterlimit="10" />
	</g>
	<g clip-path="url(#clip3_171_853)">
		<path
			d="M101.058 153.311V143.138H109.102H109.602V142.638V103.04V102.54H109.102H98.1902V89.7874V89.2874H97.6902H41.2095H40.7095V89.7874V129.385V129.885H41.2095H52.1214V142.638V143.138H52.6214H89.6783L100.205 153.665L101.058 154.518V153.311ZM52.1214 103.04V126.676H43.9183V92.4962H94.9814V102.54H52.6214H52.1214V103.04ZM90.7998 139.929H55.3302V129.385V127.176V105.749H95.4815H97.6903H106.393V139.929H98.3496H97.8496V140.429V146.772L91.1533 140.076L91.0069 139.929H90.7998Z"
			fill="#398AFF" stroke="#398AFF" />
		<path
			d="M65.9889 119.133C65.9889 118.6 66.1755 118.147 66.5489 117.773C66.9222 117.4 67.3755 117.213 67.9089 117.213C68.4422 117.213 68.8955 117.4 69.2689 117.773C69.6422 118.147 69.8289 118.6 69.8289 119.133C69.8289 119.667 69.6422 120.12 69.2689 120.493C68.8955 120.867 68.4422 121.053 67.9089 121.053C67.3755 121.053 66.9222 120.867 66.5489 120.493C66.1755 120.12 65.9889 119.667 65.9889 119.133ZM76.3795 119.133C76.3795 118.6 76.5662 118.147 76.9395 117.773C77.3128 117.4 77.7662 117.213 78.2995 117.213C78.8328 117.213 79.2862 117.4 79.6595 117.773C80.0328 118.147 80.2195 118.6 80.2195 119.133C80.2195 119.667 80.0328 120.12 79.6595 120.493C79.2862 120.867 78.8328 121.053 78.2995 121.053C77.7662 121.053 77.3128 120.867 76.9395 120.493C76.5662 120.12 76.3795 119.667 76.3795 119.133ZM86.7701 119.133C86.7701 118.6 86.9568 118.147 87.3301 117.773C87.7035 117.4 88.1568 117.213 88.6901 117.213C89.2235 117.213 89.6768 117.4 90.0501 117.773C90.4235 118.147 90.6101 118.6 90.6101 119.133C90.6101 119.667 90.4235 120.12 90.0501 120.493C89.6768 120.867 89.2235 121.053 88.6901 121.053C88.1568 121.053 87.7035 120.867 87.3301 120.493C86.9568 120.12 86.7701 119.667 86.7701 119.133Z"
			fill="#398AFF" />
	</g>
	<defs>
		<filter id="filter0_d_171_853" x="25" y="15" width="682" height="48" filterUnits="userSpaceOnUse"
			color-interpolation-filters="sRGB">
			<feFlood flood-opacity="0" result="BackgroundImageFix" />
			<feColorMatrix in="SourceAlpha" type="matrix" values="0 0 0 0 0 0 0 0 0 0 0 0 0 0 0 0 0 0 127 0"
				result="hardAlpha" />
			<feOffset dx="4" dy="4" />
			<feGaussianBlur stdDeviation="2" />
			<feComposite in2="hardAlpha" operator="out" />
			<feColorMatrix type="matrix" values="0 0 0 0 0 0 0 0 0 0 0 0 0 0 0 0 0 0 0.25 0" />
			<feBlend mode="normal" in2="BackgroundImageFix" result="effect1_dropShadow_171_853" />
			<feBlend mode="normal" in="SourceGraphic" in2="effect1_dropShadow_171_853" result="shape" />
		</filter>
		<filter id="filter1_d_171_853" x="25" y="77" width="203.758" height="159.627" filterUnits="userSpaceOnUse"
			color-interpolation-filters="sRGB">
			<feFlood flood-opacity="0" result="BackgroundImageFix" />
			<feColorMatrix in="SourceAlpha" type="matrix" values="0 0 0 0 0 0 0 0 0 0 0 0 0 0 0 0 0 0 127 0"
				result="hardAlpha" />
			<feOffset dx="4" dy="4" />
			<feGaussianBlur stdDeviation="2" />
			<feComposite in2="hardAlpha" operator="out" />
			<feColorMatrix type="matrix" values="0 0 0 0 0 0 0 0 0 0 0 0 0 0 0 0 0 0 0.25 0" />
			<feBlend mode="normal" in2="BackgroundImageFix" result="effect1_dropShadow_171_853" />
			<feBlend mode="normal" in="SourceGraphic" in2="effect1_dropShadow_171_853" result="shape" />
		</filter>
		<filter id="filter2_d_171_853" x="25.3678" y="259.598" width="203.758" height="147.18"
			filterUnits="userSpaceOnUse" color-interpolation-filters="sRGB">
			<feFlood flood-opacity="0" result="BackgroundImageFix" />
			<feColorMatrix in="SourceAlpha" type="matrix" values="0 0 0 0 0 0 0 0 0 0 0 0 0 0 0 0 0 0 127 0"
				result="hardAlpha" />
			<feOffset dx="4" dy="4" />
			<feGaussianBlur stdDeviation="2" />
			<feComposite in2="hardAlpha" operator="out" />
			<feColorMatrix type="matrix" values="0 0 0 0 0 0 0 0 0 0 0 0 0 0 0 0 0 0 0.25 0" />
			<feBlend mode="normal" in2="BackgroundImageFix" result="effect1_dropShadow_171_853" />
			<feBlend mode="normal" in="SourceGraphic" in2="effect1_dropShadow_171_853" result="shape" />
		</filter>
		<filter id="filter3_d_171_853" x="248.282" y="66.1035" width="459.487" height="364.437"
			filterUnits="userSpaceOnUse" color-interpolation-filters="sRGB">
			<feFlood flood-opacity="0" result="BackgroundImageFix" />
			<feColorMatrix in="SourceAlpha" type="matrix" values="0 0 0 0 0 0 0 0 0 0 0 0 0 0 0 0 0 0 127 0"
				result="hardAlpha" />
			<feOffset dx="4" dy="4" />
			<feGaussianBlur stdDeviation="2" />
			<feComposite in2="hardAlpha" operator="out" />
			<feColorMatrix type="matrix" values="0 0 0 0 0 0 0 0 0 0 0 0 0 0 0 0 0 0 0.25 0" />
			<feBlend mode="normal" in2="BackgroundImageFix" result="effect1_dropShadow_171_853" />
			<feBlend mode="normal" in="SourceGraphic" in2="effect1_dropShadow_171_853" result="shape" />
		</filter>
		<filter id="filter4_d_171_853" x="551" y="260" width="204.542" height="225.132" filterUnits="userSpaceOnUse"
			color-interpolation-filters="sRGB">
			<feFlood flood-opacity="0" result="BackgroundImageFix" />
			<feColorMatrix in="SourceAlpha" type="matrix" values="0 0 0 0 0 0 0 0 0 0 0 0 0 0 0 0 0 0 127 0"
				result="hardAlpha" />
			<feOffset dx="4" dy="4" />
			<feGaussianBlur stdDeviation="2" />
			<feComposite in2="hardAlpha" operator="out" />
			<feColorMatrix type="matrix" values="0 0 0 0 0 0 0 0 0 0 0 0 0 0 0 0 0 0 0.25 0" />
			<feBlend mode="normal" in2="BackgroundImageFix" result="effect1_dropShadow_171_853" />
			<feBlend mode="normal" in="SourceGraphic" in2="effect1_dropShadow_171_853" result="shape" />
		</filter>
		<clipPath id="clip0_171_853">
			<rect width="135.786" height="135.786" fill="white" transform="translate(268.65 85.3398)" />
		</clipPath>
		<clipPath id="clip1_171_853">
			<rect width="101.839" height="101.839" fill="white" transform="translate(273.176 291.281)" />
		</clipPath>
		<clipPath id="clip2_171_853">
			<rect width="103.014" height="23.5616" fill="white" transform="translate(310.585 23.2192)" />
		</clipPath>
		<clipPath id="clip3_171_853">
			<rect width="67.8928" height="67.8928" fill="white" transform="translate(41.2095 87.6028)" />
		</clipPath>
	</defs>
</svg>