<svg width="100" height="100" viewBox="0 0 100 100" fill="none" xmlns="http://www.w3.org/2000/svg">
<path d="M100 81.2501V4.16675H0V81.2501H31.25V91.6667H22.9167V95.8334H77.0833V91.6667H68.75V81.2501H100ZM4.16667 8.33342H95.8333V64.5834H4.16667V8.33342ZM64.5833 91.6667H35.4167V81.2501H64.5833V91.6667ZM4.16667 77.0834V68.7501H95.8333V77.0834H4.16667Z" fill="#398AFF"/>
<path d="M76.098 15V19.1667H83.5687L56.3063 46.429L43.8063 33.929L25.0563 52.679L18.8063 46.429L9 56.2353L11.946 59.1813L18.8063 52.321L25.0563 58.571L43.8063 39.821L56.3063 52.321L86.5146 22.1126V29.5833H90.6813V15H76.098Z" fill="#398AFF"/>
</svg>
