<svg width="100" height="100" viewBox="0 0 100 100" fill="none" xmlns="http://www.w3.org/2000/svg">
<path d="M95.5783 1.32166H21.0883C18.65 1.32166 16.6667 3.30499 16.6667 5.74332V21.3217H4.42167C1.98333 21.3217 0 23.305 0 25.7433V98.6783L15.69 82.9883H73.9117C76.35 82.9883 78.3333 81.005 78.3333 78.5667V67.9883H84.31L100 83.6783V5.74332C100 3.30499 98.0167 1.32166 95.5783 1.32166ZM75 78.5667C75 79.1667 74.5117 79.655 73.9117 79.655H14.31L3.33333 90.6317V25.7433C3.33333 25.1433 3.82167 24.655 4.42167 24.655H16.6667H73.9117C74.5117 24.655 75 25.1433 75 25.7433V67.9883V78.5667ZM96.6667 75.6317L85.69 64.655H78.3333V25.7433C78.3333 23.305 76.35 21.3217 73.9117 21.3217H20V5.74332C20 5.14332 20.4883 4.65499 21.0883 4.65499H95.5783C96.1783 4.65499 96.6667 5.14332 96.6667 5.74332V75.6317Z" fill="#398AFF"/>
<path d="M22.24 53.56C22.24 53.0533 22.3333 52.5733 22.52 52.12C22.7067 51.6667 22.96 51.28 23.28 50.96C23.6267 50.6133 24.0267 50.3467 24.48 50.16C24.9333 49.9733 25.4133 49.88 25.92 49.88C26.4267 49.88 26.9067 49.9733 27.36 50.16C27.8133 50.3467 28.2 50.6133 28.52 50.96C28.8667 51.28 29.1333 51.6667 29.32 52.12C29.5067 52.5733 29.6 53.0533 29.6 53.56C29.6 54.0667 29.5067 54.5467 29.32 55C29.1333 55.4533 28.8667 55.8533 28.52 56.2C28.2 56.52 27.8133 56.7733 27.36 56.96C26.9067 57.1467 26.4267 57.24 25.92 57.24C25.4133 57.24 24.9333 57.1467 24.48 56.96C24.0267 56.7733 23.6267 56.52 23.28 56.2C22.96 55.8533 22.7067 55.4533 22.52 55C22.3333 54.5467 22.24 54.0667 22.24 53.56ZM34.0759 53.56C34.0759 53.0533 34.1693 52.5733 34.3559 52.12C34.5426 51.6667 34.7959 51.28 35.1159 50.96C35.4626 50.6133 35.8626 50.3467 36.3159 50.16C36.7693 49.9733 37.2493 49.88 37.7559 49.88C38.2626 49.88 38.7426 49.9733 39.1959 50.16C39.6493 50.3467 40.0359 50.6133 40.3559 50.96C40.7026 51.28 40.9693 51.6667 41.1559 52.12C41.3426 52.5733 41.4359 53.0533 41.4359 53.56C41.4359 54.0667 41.3426 54.5467 41.1559 55C40.9693 55.4533 40.7026 55.8533 40.3559 56.2C40.0359 56.52 39.6493 56.7733 39.1959 56.96C38.7426 57.1467 38.2626 57.24 37.7559 57.24C37.2493 57.24 36.7693 57.1467 36.3159 56.96C35.8626 56.7733 35.4626 56.52 35.1159 56.2C34.7959 55.8533 34.5426 55.4533 34.3559 55C34.1693 54.5467 34.0759 54.0667 34.0759 53.56ZM45.9119 53.56C45.9119 53.0533 46.0052 52.5733 46.1919 52.12C46.3785 51.6667 46.6319 51.28 46.9519 50.96C47.2985 50.6133 47.6985 50.3467 48.1519 50.16C48.6052 49.9733 49.0852 49.88 49.5919 49.88C50.0985 49.88 50.5785 49.9733 51.0319 50.16C51.4852 50.3467 51.8719 50.6133 52.1919 50.96C52.5385 51.28 52.8052 51.6667 52.9919 52.12C53.1785 52.5733 53.2719 53.0533 53.2719 53.56C53.2719 54.0667 53.1785 54.5467 52.9919 55C52.8052 55.4533 52.5385 55.8533 52.1919 56.2C51.8719 56.52 51.4852 56.7733 51.0319 56.96C50.5785 57.1467 50.0985 57.24 49.5919 57.24C49.0852 57.24 48.6052 57.1467 48.1519 56.96C47.6985 56.7733 47.2985 56.52 46.9519 56.2C46.6319 55.8533 46.3785 55.4533 46.1919 55C46.0052 54.5467 45.9119 54.0667 45.9119 53.56Z" fill="#398AFF"/>
</svg>
