<svg width="60" height="42" viewBox="0 0 60 42" fill="none" xmlns="http://www.w3.org/2000/svg">
<path d="M52.6711 0.633545H7.32887C3.28791 0.633545 0 3.92146 0 7.96242V34.0378C0 38.0788 3.28791 41.3667 7.32887 41.3667H52.6711C56.7121 41.3667 60 38.0788 60 34.0378V7.96321C60.0008 3.92146 56.7129 0.633545 52.6711 0.633545ZM49.09 5.4148L30 17.7138L10.91 5.4148H49.09ZM52.6711 36.5862H7.32887C5.92398 36.5862 4.78126 35.4427 4.78126 34.0386V8.09868L28.525 23.3668C28.5569 23.3868 28.5911 23.4003 28.6238 23.4186C28.6581 23.4378 28.6931 23.4561 28.7282 23.4736C28.9123 23.5684 29.1019 23.6449 29.2956 23.6951C29.3155 23.7007 29.3354 23.7031 29.3553 23.7079C29.5681 23.7581 29.7833 23.7892 29.9984 23.7892C29.9992 23.7892 30 23.7892 30 23.7892C30.0016 23.7892 30.0024 23.7892 30.0032 23.7892C30.2183 23.7892 30.4335 23.7589 30.6463 23.7079C30.6662 23.7031 30.6861 23.7007 30.706 23.6951C30.8997 23.6449 31.0885 23.5684 31.2734 23.4736C31.3085 23.4561 31.3435 23.4378 31.3778 23.4186C31.4105 23.4003 31.4447 23.3868 31.4766 23.3668L55.2203 8.09868V34.0378C55.2195 35.4427 54.076 36.5862 52.6711 36.5862Z" fill="black"/>
</svg>
