<svg width="48" height="53" viewBox="0 0 48 53" fill="none" xmlns="http://www.w3.org/2000/svg">
<path fill-rule="evenodd" clip-rule="evenodd" d="M23.9286 50.8571L26.16 48.6952C28.6911 46.2076 30.969 43.8412 32.9939 41.5959L34.6674 39.7009C41.6511 31.6182 45.1429 25.2065 45.1429 20.4658C45.1429 10.3463 35.6449 2.14282 23.9286 2.14282C12.2123 2.14282 2.71429 10.3463 2.71429 20.4658C2.71429 25.2065 6.2061 31.6182 13.1897 39.7009L14.8633 41.5959C17.4667 44.4827 20.4884 47.5698 23.9286 50.8571Z" stroke="black" stroke-width="4" stroke-linecap="round" stroke-linejoin="round"/>
<path d="M23.9286 27.9562C28.8104 27.9562 32.7679 24.5571 32.7679 20.364C32.7679 16.1709 28.8104 12.7717 23.9286 12.7717C19.0468 12.7717 15.0894 16.1709 15.0894 20.364C15.0894 24.5571 19.0468 27.9562 23.9286 27.9562Z" stroke="black" stroke-width="4" stroke-linecap="round" stroke-linejoin="round"/>
</svg>
