<svg width="100" height="100" viewBox="0 0 100 100" fill="none" xmlns="http://www.w3.org/2000/svg">
<path d="M53.125 98.375C71.2123 98.375 85.875 83.7123 85.875 65.625C85.875 47.5377 71.2123 32.875 53.125 32.875C35.0377 32.875 20.375 47.5377 20.375 65.625C20.375 83.7123 35.0377 98.375 53.125 98.375Z" stroke="#398AFF" stroke-width="3" stroke-miterlimit="10" stroke-linecap="round" stroke-linejoin="round"/>
<mask id="path-2-outside-1_171_1112" maskUnits="userSpaceOnUse" x="22" y="0" width="62" height="42" fill="black">
<rect fill="white" x="22" width="62" height="42"/>
<path d="M32.4667 38L25 3H81L73.5333 38"/>
</mask>
<path d="M29.5327 38.6259C29.8784 40.2463 31.4722 41.2797 33.0926 40.934C34.713 40.5883 35.7463 38.9945 35.4006 37.3741L29.5327 38.6259ZM25 3V0C24.0945 0 23.2374 0.408989 22.6679 1.11291C22.0983 1.81682 21.8771 2.74034 22.066 3.62592L25 3ZM81 3L83.934 3.62592C84.1229 2.74034 83.9017 1.81682 83.3321 1.11291C82.7626 0.408989 81.9055 0 81 0V3ZM70.5994 37.3741C70.2537 38.9945 71.287 40.5883 72.9074 40.934C74.5278 41.2797 76.1216 40.2463 76.4673 38.6259L70.5994 37.3741ZM35.4006 37.3741L27.934 2.37408L22.066 3.62592L29.5327 38.6259L35.4006 37.3741ZM25 6H81V0H25V6ZM78.066 2.37408L70.5994 37.3741L76.4673 38.6259L83.934 3.62592L78.066 2.37408Z" fill="#398AFF" mask="url(#path-2-outside-1_171_1112)"/>
<path d="M46 32L44 3" stroke="#398AFF" stroke-width="3" stroke-miterlimit="10" stroke-linecap="round" stroke-linejoin="round"/>
<path d="M63 3L61 32" stroke="#398AFF" stroke-width="3" stroke-miterlimit="10" stroke-linecap="round" stroke-linejoin="round"/>
<path d="M54.125 53.125C54.125 52.5727 53.6773 52.125 53.125 52.125C52.5727 52.125 52.125 52.5727 52.125 53.125V53.1435V53.1625V53.1819V53.2017V53.2219V53.2425V53.2636V53.2851V53.307V53.3293V53.352V53.3751V53.3986V53.4226V53.4469V53.4717V53.4968V53.5223V53.5483V53.5746V53.6013V53.6285V53.656V53.6839V53.7121V53.7408V53.7699V53.7993V53.8291V53.8593V53.8898V53.9207V53.952V53.9837V54.0157V54.0481V54.0809V54.114V54.1475V54.1814V54.2156V54.2501V54.285V54.3203V54.3559V54.3919V54.4282V54.4648V54.5018V54.5391V54.5768V54.6148V54.6531V54.6918V54.7308V54.7701V54.8098V54.8498V54.8901V54.9307V54.9717V55.0129V55.0545V55.0964V55.1386V55.1812V55.224V55.2671V55.3106V55.3543V55.3984V55.4428V55.4874V55.5323V55.5776V55.6231V55.669V55.7151V55.7615V55.8082V55.8551V55.9024V55.9499V55.9977V56.0458V56.0942V56.1428V56.1917V56.2409V56.2904V56.3401V56.3901V56.4403V56.4908V56.5415V56.5926V56.6438V56.6953V56.7471V56.7991V56.8514V56.9039V56.9567V57.0097V57.0629V57.1164V57.1701V57.2241V57.2783V57.3327V57.3873V57.4422V57.4973V57.5526V57.6082V57.6639V57.7199V57.7761V57.8325V57.8891V57.946V58.003V58.0603V58.1177V58.1754V58.2333V58.2913V58.3496V58.4081V58.4667V58.5256V58.5846V58.6439V58.7033V58.7629V58.8227V58.8826V58.9428V59.0031V59.0636V59.1243V59.1852V59.2462V59.3074V59.3687V59.4303V59.492V59.5538V59.6158V59.678V59.7403V59.8028V59.8655V59.9283V59.9912V60.0543V60.1175V60.1809V60.2444V60.3081V60.3719V60.4358V60.4999V60.5641V60.6284V60.6929V60.7575V60.8222V60.887V60.952V61.0171V61.0823V61.1476V61.213V61.2786V61.3442V61.41V61.4759V61.5419V61.608V61.6741V61.7404V61.8068V61.8733V61.9399V62.0066V62.0733V62.1402V62.2071V62.2741V62.3413V62.4084V62.4757V62.5431V62.6105V62.678V62.7456V62.8132V62.881V62.9487V63.0166V63.0845V63.1525V63.2205V63.2886V63.3568V63.425V63.4933V63.5616V63.6299V63.6983V63.7668V63.8353V63.9038V63.9724V64.0411V64.1097V64.1784V64.2471V64.3159V64.3847V64.4535V64.5223V64.5912V64.6601V64.729V64.7979V64.8669V64.9359V65.0048V65.0738V65.1428V65.2118V65.2808V65.3498V65.4189V65.4879V65.5569V65.6259V65.6949V65.7639V65.8329V65.9019V65.9708V66.0398V66.1087V66.1777V66.2466V66.3155V66.3843V66.4531V66.5219V66.5907V66.6595V66.7282V66.7969V66.8655V66.9341V67.0027V67.0712V67.1397V67.2082V67.2765V67.3449V67.4132V67.4814V67.5496V67.6178V67.6858V67.7538V67.8218V67.8897V67.9575V68.0253V68.093V68.1606V68.2281V68.2956V68.363V68.4303V68.4976V68.5647V68.6318V68.6988V68.7657V68.8325V68.8993V68.9659V69.0325V69.0989V69.1653V69.2315V69.2977V69.3637V69.4296V69.4955V69.5612V69.6268V69.6923V69.7577V69.823V69.8881V69.9532V70.0181V70.0829V70.1476V70.2121V70.2765V70.3408V70.405V70.469V70.5329V70.5966V70.6602V70.7237V70.787V70.8502V70.9132V70.9761V71.0388V71.1014V71.1638V71.2261V71.2882V71.3502V71.412V71.4736V71.5351V71.5963V71.6575V71.7184V71.7792V71.8398V71.9003V71.9605V72.0206V72.0805V72.1402V72.1998V72.2591V72.3183V72.3773V72.436V72.4946V72.553V72.6112V72.6692V72.727V72.7846V72.8419V72.8991V72.9561V73.0128V73.0694V73.1257V73.1818V73.2377V73.2934V73.3489V73.4041V73.4591V73.5139V73.5685V73.6228V73.6769V73.7307V73.7844V73.8378V73.8909V73.9438V73.9965V74.0489V74.1011V74.153V74.2047V74.2561V74.3073V74.3582V74.4088V74.4592V74.5094V74.5592V74.6089V74.6582V74.7073V74.7561V74.8046V74.8529V74.9009V74.9486V74.996V75.0431V75.09V75.1366V75.1829V75.2289V75.2746V75.32V75.3652V75.41V75.4545V75.4988V75.5427V75.5863V75.6297V75.6727V75.7154V75.7578V75.7999V75.8417V75.8831V75.9243V75.9651V76.0056V76.0458V76.0857V76.1252V76.1644V76.2033V76.2418V76.28V76.3179V76.3554V76.3926V76.4295V76.466V76.5022V76.538V76.5735V76.6086V76.6434V76.6778V76.7119V76.7456V76.7789V76.8119V76.8445V76.8768V76.9087V76.9402V76.9714V77.0022V77.0326V77.0626V77.0923V77.1215V77.1504V77.179V77.2071V77.2348V77.2622V77.2892V77.3157V77.3419V77.3677V77.3931V77.4181V77.4427V77.4669V77.4906V77.514V77.537V77.5595V77.5817V77.6034V77.6247V77.6456V77.6661V77.6862V77.7058V77.725V77.7438V77.7622V77.7801V77.7976V77.8147V77.8313V77.8475V77.8633V77.8786V77.8934V77.9079V77.9218V77.9354V77.9485V77.9611V77.9733V77.985V77.9963V78.0071V78.0174V78.0273V78.0367V78.0457V78.0541V78.0622V78.0697V78.0768V78.0834V78.0895V78.0951V78.1003V78.1049V78.1091V78.1128V78.1161V78.1188V78.121V78.1228V78.124V78.1248V78.125C52.125 78.6773 52.5727 79.125 53.125 79.125C53.6773 79.125 54.125 78.6773 54.125 78.125V78.1248V78.124V78.1228V78.121V78.1188V78.1161V78.1128V78.1091V78.1049V78.1003V78.0951V78.0895V78.0834V78.0768V78.0697V78.0622V78.0541V78.0457V78.0367V78.0273V78.0174V78.0071V77.9963V77.985V77.9733V77.9611V77.9485V77.9354V77.9218V77.9079V77.8934V77.8786V77.8633V77.8475V77.8313V77.8147V77.7976V77.7801V77.7622V77.7438V77.725V77.7058V77.6862V77.6661V77.6456V77.6247V77.6034V77.5817V77.5595V77.537V77.514V77.4906V77.4669V77.4427V77.4181V77.3931V77.3677V77.3419V77.3157V77.2892V77.2622V77.2348V77.2071V77.179V77.1504V77.1215V77.0923V77.0626V77.0326V77.0022V76.9714V76.9402V76.9087V76.8768V76.8445V76.8119V76.7789V76.7456V76.7119V76.6778V76.6434V76.6086V76.5735V76.538V76.5022V76.466V76.4295V76.3926V76.3554V76.3179V76.28V76.2418V76.2033V76.1644V76.1252V76.0857V76.0458V76.0056V75.9651V75.9243V75.8831V75.8417V75.7999V75.7578V75.7154V75.6727V75.6297V75.5863V75.5427V75.4988V75.4545V75.41V75.3652V75.32V75.2746V75.2289V75.1829V75.1366V75.09V75.0431V74.996V74.9486V74.9009V74.8529V74.8046V74.7561V74.7073V74.6582V74.6089V74.5592V74.5094V74.4592V74.4088V74.3582V74.3073V74.2561V74.2047V74.153V74.1011V74.0489V73.9965V73.9438V73.8909V73.8378V73.7844V73.7307V73.6769V73.6228V73.5685V73.5139V73.4591V73.4041V73.3489V73.2934V73.2377V73.1818V73.1257V73.0694V73.0128V72.9561V72.8991V72.8419V72.7846V72.727V72.6692V72.6112V72.553V72.4946V72.436V72.3773V72.3183V72.2591V72.1998V72.1402V72.0805V72.0206V71.9605V71.9003V71.8398V71.7792V71.7184V71.6575V71.5963V71.5351V71.4736V71.412V71.3502V71.2882V71.2261V71.1638V71.1014V71.0388V70.9761V70.9132V70.8502V70.787V70.7237V70.6602V70.5966V70.5329V70.469V70.405V70.3408V70.2765V70.2121V70.1476V70.0829V70.0181V69.9532V69.8881V69.823V69.7577V69.6923V69.6268V69.5612V69.4955V69.4296V69.3637V69.2977V69.2315V69.1653V69.0989V69.0325V68.9659V68.8993V68.8325V68.7657V68.6988V68.6318V68.5647V68.4976V68.4303V68.363V68.2956V68.2281V68.1606V68.093V68.0253V67.9575V67.8897V67.8218V67.7538V67.6858V67.6178V67.5496V67.4814V67.4132V67.3449V67.2765V67.2082V67.1397V67.0712V67.0027V66.9341V66.8655V66.7969V66.7282V66.6595V66.5907V66.5219V66.4531V66.3843V66.3155V66.2466V66.1777V66.1087V66.0398V65.9708V65.9019V65.8329V65.7639V65.6949V65.6259V65.5569V65.4879V65.4189V65.3498V65.2808V65.2118V65.1428V65.0738V65.0048V64.9359V64.8669V64.7979V64.729V64.6601V64.5912V64.5223V64.4535V64.3847V64.3159V64.2471V64.1784V64.1097V64.0411V63.9724V63.9038V63.8353V63.7668V63.6983V63.6299V63.5616V63.4933V63.425V63.3568V63.2886V63.2205V63.1525V63.0845V63.0166V62.9487V62.881V62.8132V62.7456V62.678V62.6105V62.5431V62.4757V62.4084V62.3413V62.2741V62.2071V62.1402V62.0733V62.0066V61.9399V61.8733V61.8068V61.7404V61.6741V61.608V61.5419V61.4759V61.41V61.3442V61.2786V61.213V61.1476V61.0823V61.0171V60.952V60.887V60.8222V60.7575V60.6929V60.6284V60.5641V60.4999V60.4358V60.3719V60.3081V60.2444V60.1809V60.1175V60.0543V59.9912V59.9283V59.8655V59.8028V59.7403V59.678V59.6158V59.5538V59.492V59.4303V59.3687V59.3074V59.2462V59.1852V59.1243V59.0636V59.0031V58.9428V58.8826V58.8227V58.7629V58.7033V58.6439V58.5846V58.5256V58.4667V58.4081V58.3496V58.2913V58.2333V58.1754V58.1177V58.0603V58.003V57.946V57.8891V57.8325V57.7761V57.7199V57.6639V57.6082V57.5526V57.4973V57.4422V57.3873V57.3327V57.2783V57.2241V57.1701V57.1164V57.0629V57.0097V56.9567V56.9039V56.8514V56.7991V56.7471V56.6953V56.6438V56.5926V56.5415V56.4908V56.4403V56.3901V56.3401V56.2904V56.2409V56.1917V56.1428V56.0942V56.0458V55.9977V55.9499V55.9024V55.8551V55.8082V55.7615V55.7151V55.669V55.6231V55.5776V55.5323V55.4874V55.4428V55.3984V55.3543V55.3106V55.2671V55.224V55.1812V55.1386V55.0964V55.0545V55.0129V54.9717V54.9307V54.8901V54.8498V54.8098V54.7701V54.7308V54.6918V54.6531V54.6148V54.5768V54.5391V54.5018V54.4648V54.4282V54.3919V54.3559V54.3203V54.285V54.2501V54.2156V54.1814V54.1475V54.114V54.0809V54.0481V54.0157V53.9837V53.952V53.9207V53.8898V53.8593V53.8291V53.7993V53.7699V53.7408V53.7121V53.6839V53.656V53.6285V53.6013V53.5746V53.5483V53.5223V53.4968V53.4717V53.4469V53.4226V53.3986V53.3751V53.352V53.3293V53.307V53.2851V53.2636V53.2425V53.2219V53.2017V53.1819V53.1625V53.1435V53.125Z" stroke="#398AFF" stroke-width="2" stroke-miterlimit="10" stroke-linecap="round" stroke-linejoin="round"/>
<path d="M46.875 79.125H59.375" stroke="#398AFF" stroke-width="3" stroke-miterlimit="10" stroke-linecap="round" stroke-linejoin="round"/>
<path d="M46.875 59.375H53.125" stroke="#398AFF" stroke-width="3" stroke-miterlimit="10" stroke-linecap="round" stroke-linejoin="round"/>
</svg>
