<svg width="100" height="100" viewBox="0 0 100 100" fill="none" xmlns="http://www.w3.org/2000/svg">
<path d="M94.0004 86.2639L78.795 71.0585C82.9352 64.8645 85.275 57.7516 85.6293 50.3001H90.9781C92.0783 50.3001 92.9703 49.4083 92.9703 48.3079C92.9703 35.4044 87.9455 23.2734 78.8211 14.1492C69.6967 5.0248 57.5657 0 44.6622 0C43.562 0 42.67 0.891795 42.67 1.99218V7.34081C20.9753 8.38338 3.64609 26.3595 3.64609 48.3081C3.64609 70.9245 22.0459 89.3242 44.6622 89.3242C52.8378 89.3242 60.6696 86.9492 67.413 82.4411L82.6182 97.6463C84.1871 99.2152 86.2485 99.9998 88.3092 99.9998C90.3701 99.9998 92.4313 99.2152 94.0004 97.6461C97.1385 94.5082 97.1385 89.402 94.0004 86.2639ZM75.9167 68.1798L73.4518 65.7149C72.6739 64.937 71.4126 64.9372 70.6346 65.7149L67.7606 68.5889L63.8583 64.6866C67.2235 60.7481 69.4014 55.7663 69.8301 50.3003H81.642C81.3051 56.6921 79.3475 62.802 75.9167 68.1798ZM46.6544 4.02851C69.5151 5.04354 87.927 23.4552 88.942 46.3159H69.8305C68.8631 33.9802 58.9901 24.1074 46.6544 23.1398V4.02851ZM46.6544 27.1402C56.7915 28.0867 64.8837 36.1788 65.8301 46.3157H46.6544V27.1402V27.1402ZM44.6622 50.3001H65.8317C64.8237 61.093 55.7142 69.57 44.6622 69.57C32.9382 69.57 23.4003 60.0319 23.4003 48.3081C23.4003 37.2562 31.8771 28.1466 42.6702 27.1388V48.3081C42.6702 49.4081 43.562 50.3001 44.6622 50.3001ZM62.0692 77.0971L64.5348 79.5627C58.6009 83.3491 51.7761 85.3401 44.6622 85.3401C24.2427 85.3401 7.63026 68.7276 7.63026 48.3081C7.63026 28.5566 23.1728 12.3672 42.6702 11.3289V23.1404C29.6771 24.1593 19.4162 35.0577 19.4162 48.3081C19.4162 62.229 30.7415 73.5542 44.6622 73.5542C50.9071 73.5542 56.6286 71.2739 61.0407 67.5038L64.943 71.4061L62.0692 74.2799C61.6958 74.6534 61.4858 75.1602 61.4858 75.6885C61.4858 76.2168 61.6958 76.7237 62.0692 77.0971ZM91.1832 94.8289C89.5989 96.4137 87.0203 96.4139 85.4356 94.8289L66.295 75.6883L72.0428 69.9405L91.1832 89.0809C92.7678 90.6658 92.7678 93.2444 91.1832 94.8289Z" fill="#398AFF"/>
<path d="M40.9183 32.1194C40.5435 31.0848 39.4011 30.5503 38.3667 30.9247C33.7843 32.5846 29.9718 36.0731 27.9066 40.4954C27.441 41.4922 27.8718 42.6778 28.8685 43.1432C29.1412 43.2706 29.4279 43.3309 29.7101 43.3309C30.4599 43.3309 31.1781 42.9053 31.5163 42.1813C33.137 38.7104 36.1284 35.9729 39.7234 34.671C40.7581 34.2962 41.2929 33.1538 40.9183 32.1194Z" fill="#398AFF"/>
<path d="M28.38 45.0016C27.2833 44.9132 26.3238 45.7339 26.2371 46.8306C26.1984 47.3194 26.1789 47.8165 26.1789 48.3081C26.1789 49.4083 27.0707 50.3003 28.171 50.3003C29.2712 50.3003 30.1632 49.4085 30.1632 48.3081C30.1632 47.9208 30.1789 47.5294 30.2091 47.1446C30.2956 46.0477 29.4769 45.0882 28.38 45.0016Z" fill="#398AFF"/>
</svg>
