<svg width="85" height="100" viewBox="0 0 85 100" fill="none" xmlns="http://www.w3.org/2000/svg">
<path d="M28.5516 100V57.3594H6.67653V100H28.5516ZM10.9265 61.6094H24.3016V95.75H10.9265V61.6094Z" fill="#398AFF"/>
<path d="M34.8016 100H56.6767V42.9843H34.8016V100ZM39.0516 47.2343H52.4265V95.75H39.0516V47.2343Z" fill="#398AFF"/>
<path d="M80.5516 97.2499H81.0516V96.7499V31.0687V30.5687H80.5516H67.1765H66.6765V31.0687V96.7499V97.2499H67.1765H80.5516ZM63.4265 28.3187H84.3016V99.4999H63.4265V28.3187Z" fill="#398AFF" stroke="#398AFF"/>
<path d="M61.4993 5.04605L61.5772 2.51121L59.3182 3.6639L42.8256 12.0797L40.4254 13.3044L42.731 14.6992L46.7009 17.1009C29.6634 35.7093 3.9804 40.3092 3.73816 40.3522L2.23745 40.6182L2.52741 42.1145L3.52948 47.2854L3.80811 48.7232L5.25216 48.479C6.54291 48.2608 35.0406 43.2403 54.0818 21.5663L58.6694 24.3395L60.8659 25.6673L60.9447 23.1019L61.4993 5.04605Z" stroke="#398AFF" stroke-width="3"/>
</svg>
