<svg width="60" height="60" viewBox="0 0 60 60" fill="none" xmlns="http://www.w3.org/2000/svg">
<path d="M60 29.2282C60 45.3693 46.8132 58.4544 30.5429 58.4544C25.3797 58.4544 20.5296 57.1337 16.3074 54.8211L0 60L5.31581 44.3147C2.63541 39.9126 1.09173 34.7435 1.09173 29.2262C1.09368 13.0851 14.2766 0 30.5468 0C46.8151 0.003913 60 13.087 60 29.2282ZM30.541 4.66038C16.8866 4.66038 5.7795 15.6833 5.7795 29.234C5.7795 34.6105 7.53253 39.5878 10.4966 43.6378L7.40535 52.7609L16.9179 49.7382C20.8309 52.3051 25.5128 53.7999 30.541 53.7999C44.1954 53.7999 55.3064 42.7789 55.3064 29.2282C55.3103 15.6833 44.1973 4.66038 30.541 4.66038ZM45.4182 35.9605C45.2343 35.665 44.753 35.4851 44.033 35.1251C43.315 34.7651 39.76 33.0336 39.1007 32.7988C38.4355 32.5581 37.9542 32.4368 37.4729 33.1549C36.9974 33.8729 35.6122 35.4851 35.1877 35.9663C34.767 36.4457 34.3464 36.5063 33.6244 36.1522C32.9025 35.7883 30.5742 35.037 27.8156 32.5973C25.6693 30.6955 24.2195 28.3536 23.8008 27.6356C23.3763 26.9195 23.7578 26.5321 24.1158 26.176C24.4386 25.8532 24.8378 25.3386 25.1997 24.918C25.5617 24.5013 25.681 24.2058 25.9217 23.7265C26.1584 23.2471 26.0391 22.8304 25.861 22.4685C25.681 22.1085 24.2391 18.5868 23.6345 17.1526C23.0339 15.7205 22.4332 15.9572 22.0106 15.9572C21.59 15.9572 21.1087 15.8985 20.6274 15.8985C20.1461 15.8985 19.3635 16.0727 18.7041 16.7907C18.0448 17.5087 16.1783 19.2402 16.1783 22.7658C16.1783 26.2954 18.7628 29.6977 19.1248 30.1751C19.4887 30.6505 24.1217 38.1224 31.4605 40.9906C38.8033 43.8569 38.8033 42.9002 40.1259 42.7789C41.4524 42.6576 44.3989 41.0474 44.9976 39.3765C45.6002 37.6978 45.6002 36.2598 45.4182 35.9605Z" fill="black"/>
</svg>
